<?xml version="1.0" encoding="UTF-8" standalone="no"?>
<svg
   xmlns:dc="http://purl.org/dc/elements/1.1/"
   xmlns:cc="http://creativecommons.org/ns#"
   xmlns:rdf="http://www.w3.org/1999/02/22-rdf-syntax-ns#"
   xmlns:svg="http://www.w3.org/2000/svg"
   xmlns="http://www.w3.org/2000/svg"
   id="svg8"
   version="1.1"
   viewBox="0 0 100 100"
   height="100mm"
   width="100mm">
  <defs
     id="defs2" />
  <metadata
     id="metadata5">
    <rdf:RDF>
      <cc:Work
         rdf:about="">
        <dc:format>image/svg+xml</dc:format>
        <dc:type
           rdf:resource="http://purl.org/dc/dcmitype/StillImage" />
        <dc:title></dc:title>
      </cc:Work>
    </rdf:RDF>
  </metadata>
  <g
     transform="translate(0,-197)"
     id="layer1">
    <g
       id="flowRoot834"
       style="font-style:normal;font-weight:normal;font-size:192px;line-height:1.25;font-family:sans-serif;letter-spacing:0px;word-spacing:0px;fill:#000000;fill-opacity:1;stroke:none"
       transform="matrix(0.26458333,0,0,0.26458333,0,197)"
       aria-label="M">
      <path
         id="path846"
         style="stroke-width:1.99594414;fill:#4d4d4d"
         d="m 61.173586,49.291478 62.383964,15.657365 65.23171,174.456307 72.17194,-181.022299 55.81797,-9.091373 19.1929,261.187052 -56.05549,18.18275 V 83.347273 L 207.87547,274.95791 151.70741,252.73455 97.849055,83.347273 V 328.66128 l -67.485122,13.63706 z" />
    </g>
    <g
       id="flowRoot849"
       style="font-style:normal;font-weight:normal;font-size:192px;line-height:1.25;font-family:sans-serif;letter-spacing:0px;word-spacing:0px;fill:#000000;fill-opacity:1;stroke:none"
       transform="matrix(0.50804385,0,0,0.50804385,-7.2784794,173.36587)"
       aria-label="T">
      <path
         style="fill:#d45500;fill-opacity:0.84046691"
         id="path857"
         d="M 34.287109,55.820312 151.90425,52.663858 149.79994,72.02085 95.6408,69.653509 103.00586,195.78906 84.237647,190.00223 83.974609,71.757812 30.341541,64.129714 Z" />
    </g>
    <path
       d="m 94.108283,232.69171 -4.27631,8.56756 c -3.178225,-1.52002 -1.900502,-3.05403 -4.719449,-3.80022 -2.818948,-0.74619 -5.541167,-1.11929 -8.166657,-1.11929 -4.560063,0 -8.083747,0.88438 -10.571054,2.65313 -2.45967,1.76875 -4.224044,3.74915 -3.689505,7.54483 0.381546,2.7093 0.815284,4.80879 2.445851,6.21826 0.990031,2.98546 4.781157,2.50113 9.368856,3.35787 l 5.057524,1.03638 c 6.245903,1.18838 10.847421,3.28877 13.804552,6.30117 2.984768,2.98477 4.477152,6.9921 4.477152,12.02199 0,5.99717 -2.017482,10.54341 -6.052446,13.63873 -4.007328,3.09531 -9.893954,4.64297 -17.659878,4.64297 -2.929495,0 -6.052447,-0.33164 -9.368856,-0.99492 -3.288767,-0.66328 -6.701905,-1.64439 -10.239408,-2.94332 l 2.672694,-12.49807 c 3.399319,1.90694 4.056853,7.21946 7.317984,8.18674 3.261135,0.96729 6.199727,2.78728 9.350316,2.78728 4.781156,0 8.606763,-2.47213 11.335785,-4.1553 8.708189,-5.37091 6.034937,-3.75825 6.034937,-7.24048 0,-3.04004 -0.67238,-7.55496 -2.551678,-9.26844 -1.851662,-1.71348 -5.039159,-1.79587 -9.295217,-2.65261 l -7.370768,-0.86129 c -6.245903,-1.24365 -10.764511,-3.19204 -13.555817,-5.84517 -2.791311,-2.65312 -4.186967,-6.34263 -4.186967,-11.06851 0,-5.47208 1.920754,-9.78341 5.762261,-12.934 3.869139,-3.15058 9.189212,-4.72588 15.960214,-4.72588 2.901858,0 5.858989,0.26255 8.871394,0.78765 3.012405,0.5251 6.093902,1.31274 9.24449,2.36294 z"
       id="path868"
       style="font-style:normal;font-weight:normal;font-size:192px;line-height:1.25;font-family:sans-serif;letter-spacing:0px;word-spacing:0px;fill:#445500;fill-opacity:0.90272372;stroke:none;stroke-width:0.44218788" />
  </g>
</svg>
